<?xml version="1.0" encoding="UTF-8"?>
<!DOCTYPE svg PUBLIC "-//W3C//DTD SVG 1.1//EN" "http://www.w3.org/Graphics/SVG/1.1/DTD/svg11.dtd">
<!-- Creator: CorelDRAW -->
<svg xmlns="http://www.w3.org/2000/svg" xml:space="preserve" width="297mm" height="297mm" version="1.1" style="shape-rendering:geometricPrecision; text-rendering:geometricPrecision; image-rendering:optimizeQuality; fill-rule:evenodd; clip-rule:evenodd"
viewBox="0 0 29700 29700"
 xmlns:xlink="http://www.w3.org/1999/xlink"
 xmlns:xodm="http://www.corel.com/coreldraw/odm/2003">
 <defs>
  <style type="text/css">
   <![CDATA[
    .fil0 {fill:#21C27E}
   ]]>
  </style>
 </defs>
 <g id="Layer_x0020_1">
  <metadata id="CorelCorpID_0Corel-Layer"/>
  <path class="fil0" d="M7993.58 13442.1l8900.18 -2578.89c11.3,-30.46 11.06,-25.78 25.65,-64.09l91.42 -462.47c69.84,-378.32 280.89,-1344.88 291.52,-1607.55l-9305.99 1.2 -2.78 4711.8z"/>
  <path class="fil0" d="M19903.9 20307.08c48.65,-198.71 384.55,-752.12 498.01,-971.55 96.85,-187.16 470.13,-858.68 513.01,-997.87 -591.02,8.57 -1186.75,4.94 -1778.09,2.56 -601.97,-2.46 -1083.11,54.92 -1615.43,-167.53 -1795.42,-750.16 -1886.76,-3552.95 77.83,-4361.84 518.32,-213.46 1810.28,-149.12 2521.06,-145.97 267.81,1.19 654.72,23.12 907.77,-4.21l907.33 -1957.18c-378.82,-33.07 -2220.34,-7.94 -2748.14,-7.49 -999.17,0.85 -1559.16,-34.89 -2421.38,322.15 -964.89,399.56 -1711.46,1179.22 -2141.83,2128.87l183.01 197.21c139.83,133.59 741.35,752.33 785.74,857.69 -136.98,117.01 -1031.89,1138.74 -1237.28,1380.95l-100.39 115.63c37.14,267.92 98.01,535.73 184.67,800.32 107.11,326.99 263.35,662.5 438.6,922.61 247.13,366.86 254.09,338.58 444.68,589.44 63.6,83.8 87.93,115.47 167.32,185.65 1370.71,1211.22 2196.69,1114.37 4413.51,1110.56z"/>
  <path class="fil0" d="M9324.81 21588.16c109.34,-92.69 252.13,-269.12 344.09,-386.08 51.74,-65.81 111.69,-126.08 164.43,-188.7l516.47 -593.23c465.74,-500.91 1339.24,-1613.08 1725.63,-2006.17l1534.84 -1767.79c205.36,-242.23 1100.27,-1263.93 1237.25,-1380.95 -44.37,-105.36 -645.92,-724.08 -785.73,-857.73l-485.62 -523.24c-202.59,-229.84 -425.2,-452.18 -633.11,-678.47l-321.39 -334.2c-100.13,-100.8 -223.71,-278.26 -362.47,-346.51l-366.2 1119.76c-122.1,369.82 -251.49,756.11 -377.74,1133.57l-1113.48 3373.89c-121.8,385.27 -234.87,777.05 -363.68,1149.19l-542.09 1702.62c-52.45,166.18 -142.06,408.83 -171.2,584.04z"/>
 </g>
</svg>
